<svg width="240" height="220" viewBox="0 0 240 220" fill="none" xmlns="http://www.w3.org/2000/svg">
  <ellipse cx="112" cy="194" rx="54" ry="12" fill="#EBDCCA" opacity="0.75"/>
  <path d="M90 66L76 39L102 54" fill="#FFF8F1" stroke="#171412" stroke-width="7" stroke-linecap="round" stroke-linejoin="round"/>
  <path d="M138 66L152 39L126 54" fill="#FFF8F1" stroke="#171412" stroke-width="7" stroke-linecap="round" stroke-linejoin="round"/>
  <path d="M89 48L84 40L94 41" stroke="#F7C0B1" stroke-width="6" stroke-linecap="round"/>
  <path d="M139 48L144 40L134 41" stroke="#F7C0B1" stroke-width="6" stroke-linecap="round"/>
  <ellipse cx="114" cy="78" rx="43" ry="35" fill="#FFF8F1" stroke="#171412" stroke-width="7"/>
  <path d="M104 47L106 59" stroke="#D3C4AD" stroke-width="7" stroke-linecap="round"/>
  <path d="M114 45V60" stroke="#D3C4AD" stroke-width="7" stroke-linecap="round"/>
  <path d="M124 47L122 59" stroke="#D3C4AD" stroke-width="7" stroke-linecap="round"/>
  <path d="M72 110C72 89 89 76 114 76C139 76 156 89 156 110V148C156 171 139 186 114 186C89 186 72 171 72 148V110Z" fill="#FFF8F1" stroke="#171412" stroke-width="7"/>
  <path d="M84 175C86 162 96 154 106 154" stroke="#171412" stroke-width="7" stroke-linecap="round"/>
  <path d="M114 175V154" stroke="#171412" stroke-width="7" stroke-linecap="round"/>
  <path d="M144 175C142 162 132 154 122 154" stroke="#171412" stroke-width="7" stroke-linecap="round"/>
  <path d="M72 103L52 96" stroke="#171412" stroke-width="6" stroke-linecap="round"/>
  <path d="M70 113L46 113" stroke="#171412" stroke-width="6" stroke-linecap="round"/>
  <path d="M72 123L52 130" stroke="#171412" stroke-width="6" stroke-linecap="round"/>
  <path d="M156 103L176 96" stroke="#171412" stroke-width="6" stroke-linecap="round"/>
  <path d="M158 113L182 113" stroke="#171412" stroke-width="6" stroke-linecap="round"/>
  <path d="M156 123L176 130" stroke="#171412" stroke-width="6" stroke-linecap="round"/>
  <circle cx="98" cy="81" r="4.8" fill="#171412"/>
  <circle cx="130" cy="81" r="4.8" fill="#171412"/>
  <path d="M114 87C111 87 109 89 109 92C109 95 111 97 114 97C117 97 119 95 119 92C119 89 117 87 114 87Z" fill="#171412"/>
  <path d="M114 97V105" stroke="#171412" stroke-width="5" stroke-linecap="round"/>
  <path d="M114 107C109 103 103 103 99 107" stroke="#171412" stroke-width="5" stroke-linecap="round"/>
  <path d="M114 107C119 103 125 103 129 107" stroke="#171412" stroke-width="5" stroke-linecap="round"/>
  <circle cx="90" cy="97" r="4" fill="#F7C0B1" opacity="0.9"/>
  <circle cx="138" cy="97" r="4" fill="#F7C0B1" opacity="0.9"/>
  <path d="M156 156C173 156 188 168 187 185C186 199 172 206 154 199" fill="#FFF8F1"/>
  <path d="M156 156C173 156 188 168 187 185C186 199 172 206 154 199" stroke="#171412" stroke-width="7" stroke-linecap="round" stroke-linejoin="round"/>
  <path d="M164 198C170 197 175 194 178 189" stroke="#D3C4AD" stroke-width="7" stroke-linecap="round"/>
  <path d="M170 50C170 32 184 18 202 18H208C226 18 240 32 240 50C240 68 226 82 208 82H198L186 92L190 80C178 76 170 64 170 50Z" fill="#FFFDF8"/>
  <path d="M170 50C170 32 184 18 202 18H208C226 18 240 32 240 50C240 68 226 82 208 82H198L186 92L190 80C178 76 170 64 170 50Z" stroke="#171412" stroke-width="5" stroke-linejoin="round"/>
  <ellipse cx="206" cy="51" rx="18" ry="12" fill="#F3B35C" stroke="#171412" stroke-width="5"/>
  <path d="M190 51H222" stroke="#171412" stroke-width="5" stroke-linecap="round"/>
  <circle cx="198" cy="51" r="2.5" fill="#171412"/>
  <path d="M209 43L220 51L209 59" stroke="#171412" stroke-width="5" stroke-linecap="round" stroke-linejoin="round"/>
  <path d="M205 45L205 57" stroke="#D48F45" stroke-width="4" stroke-linecap="round"/>
  <path d="M213 45L213 57" stroke="#D48F45" stroke-width="4" stroke-linecap="round"/>
</svg>
