<svg width="240" height="220" viewBox="0 0 240 220" fill="none" xmlns="http://www.w3.org/2000/svg">
  <ellipse cx="120" cy="194" rx="54" ry="12" fill="#EBDCCA" opacity="0.75"/>
  <path d="M96 64L82 36L108 52" fill="#FFF8F1" stroke="#171412" stroke-width="7" stroke-linecap="round" stroke-linejoin="round"/>
  <path d="M144 64L158 36L132 52" fill="#FFF8F1" stroke="#171412" stroke-width="7" stroke-linecap="round" stroke-linejoin="round"/>
  <path d="M95 46L90 38L100 39" stroke="#F7C0B1" stroke-width="6" stroke-linecap="round"/>
  <path d="M145 46L150 38L140 39" stroke="#F7C0B1" stroke-width="6" stroke-linecap="round"/>
  <ellipse cx="120" cy="76" rx="44" ry="34" fill="#FFF8F1" stroke="#171412" stroke-width="7"/>
  <path d="M110 45L112 57" stroke="#D3C4AD" stroke-width="7" stroke-linecap="round"/>
  <path d="M120 43L120 58" stroke="#D3C4AD" stroke-width="7" stroke-linecap="round"/>
  <path d="M130 45L128 57" stroke="#D3C4AD" stroke-width="7" stroke-linecap="round"/>
  <path d="M78 108C78 87 95 74 120 74C145 74 162 87 162 108V146C162 169 145 184 120 184C95 184 78 169 78 146V108Z" fill="#FFF8F1" stroke="#171412" stroke-width="7"/>
  <path d="M90 173C92 160 102 152 112 152" stroke="#171412" stroke-width="7" stroke-linecap="round"/>
  <path d="M120 173V152" stroke="#171412" stroke-width="7" stroke-linecap="round"/>
  <path d="M150 173C148 160 138 152 128 152" stroke="#171412" stroke-width="7" stroke-linecap="round"/>
  <path d="M80 102L60 95" stroke="#171412" stroke-width="6" stroke-linecap="round"/>
  <path d="M78 112L54 112" stroke="#171412" stroke-width="6" stroke-linecap="round"/>
  <path d="M80 122L60 129" stroke="#171412" stroke-width="6" stroke-linecap="round"/>
  <path d="M160 102L180 95" stroke="#171412" stroke-width="6" stroke-linecap="round"/>
  <path d="M162 112L186 112" stroke="#171412" stroke-width="6" stroke-linecap="round"/>
  <path d="M160 122L180 129" stroke="#171412" stroke-width="6" stroke-linecap="round"/>
  <circle cx="104" cy="79" r="4.8" fill="#171412"/>
  <circle cx="136" cy="79" r="4.8" fill="#171412"/>
  <path d="M120 85C117 85 115 87 115 90C115 93 117 95 120 95C123 95 125 93 125 90C125 87 123 85 120 85Z" fill="#171412"/>
  <path d="M120 95V103" stroke="#171412" stroke-width="5" stroke-linecap="round"/>
  <path d="M120 103C115 108 108 109 103 107" stroke="#171412" stroke-width="5" stroke-linecap="round"/>
  <path d="M120 103C125 108 132 109 137 107" stroke="#171412" stroke-width="5" stroke-linecap="round"/>
  <path d="M162 154C180 154 195 166 194 183C193 197 179 204 161 197" fill="#FFF8F1"/>
  <path d="M162 154C180 154 195 166 194 183C193 197 179 204 161 197" stroke="#171412" stroke-width="7" stroke-linecap="round" stroke-linejoin="round"/>
  <path d="M170 196C176 195 181 192 184 187" stroke="#D3C4AD" stroke-width="7" stroke-linecap="round"/>
</svg>
